<svg xmlns="http://www.w3.org/2000/svg" viewBox="0 0 1400 700" preserveAspectRatio="xMidYMid slice" role="img" aria-label="TCG Solutions: Your Technology Partner — Web Solutions, That Computer Guy, Cloud Services">
<defs>
<linearGradient id="bgA" x1="0" y1="0" x2="1" y2="1">
  <stop offset="0%" stop-color="#050814"/>
  <stop offset="50%" stop-color="#0a1628"/>
  <stop offset="100%" stop-color="#0f1b2d"/>
</linearGradient>
<linearGradient id="cyanBtn" x1="0" y1="0" x2="0" y2="1">
  <stop offset="0%" stop-color="#22d3ee"/>
  <stop offset="100%" stop-color="#0891b2"/>
</linearGradient>
<linearGradient id="goldBtn" x1="0" y1="0" x2="0" y2="1">
  <stop offset="0%" stop-color="#fbbf24"/>
  <stop offset="100%" stop-color="#d97706"/>
</linearGradient>
<linearGradient id="purpBtn" x1="0" y1="0" x2="0" y2="1">
  <stop offset="0%" stop-color="#a855f7"/>
  <stop offset="100%" stop-color="#6d28d9"/>
</linearGradient>
<linearGradient id="cardGlass" x1="0" y1="0" x2="0" y2="1">
  <stop offset="0%" stop-color="rgba(255,255,255,0.08)"/>
  <stop offset="100%" stop-color="rgba(255,255,255,0.02)"/>
</linearGradient>
<linearGradient id="textGrad" x1="0" y1="0" x2="1" y2="0">
  <stop offset="0%" stop-color="#fff"/>
  <stop offset="100%" stop-color="#67e8f9"/>
</linearGradient>
<pattern id="circuit" x="0" y="0" width="120" height="120" patternUnits="userSpaceOnUse">
  <path d="M 10 20 L 40 20 L 40 60 L 80 60 L 80 100 L 110 100 M 60 0 L 60 35 M 0 85 L 25 85 L 25 110" fill="none" stroke="#22d3ee" stroke-width="0.6" opacity=".25"/>
  <circle cx="10" cy="20" r="1.5" fill="#22d3ee" opacity=".4"/>
  <circle cx="80" cy="60" r="1.5" fill="#22d3ee" opacity=".4"/>
  <circle cx="25" cy="85" r="1.5" fill="#22d3ee" opacity=".4"/>
</pattern>
<filter id="glowAd" x="-20%" y="-20%" width="140%" height="140%">
  <feGaussianBlur stdDeviation="3"/>
</filter>
<filter id="dropShadow" x="-20%" y="-20%" width="140%" height="140%">
  <feDropShadow dx="0" dy="8" stdDeviation="12" flood-color="#0891b2" flood-opacity=".35"/>
</filter>
</defs>

<rect width="1400" height="700" fill="url(#bgA)"/>
<rect width="1400" height="700" fill="url(#circuit)"/>

<!-- Top accent gradient bar -->
<rect x="0" y="0" width="1400" height="3" fill="url(#cyanBtn)" opacity=".8"/>
<rect x="0" y="697" width="1400" height="3" fill="url(#cyanBtn)" opacity=".8"/>

<!-- Nebula glow accents -->
<ellipse cx="250" cy="150" rx="300" ry="150" fill="#22d3ee" opacity=".08"/>
<ellipse cx="1150" cy="550" rx="300" ry="150" fill="#a855f7" opacity=".08"/>

<!-- TCG LOGO BADGE (left) -->
<g transform="translate(50,50)">
  <circle cx="70" cy="70" r="65" fill="#0a1628" stroke="#22d3ee" stroke-width="3" filter="url(#dropShadow)"/>
  <circle cx="70" cy="70" r="58" fill="none" stroke="rgba(34,211,238,.35)" stroke-width="1"/>
  <text x="70" y="82" text-anchor="middle" font-family="'DM Sans',sans-serif" font-weight="800" font-size="34" fill="#22d3ee" filter="url(#glowAd)">TCG</text>
</g>

<!-- Header title -->
<g font-family="'DM Sans',sans-serif" font-weight="800">
  <text x="210" y="80" font-size="48" fill="#fff">TCG SOLUTIONS</text>
  <text x="690" y="80" font-size="48" fill="#22d3ee">YOUR TECHNOLOGY PARTNER</text>
</g>
<text x="210" y="115" font-family="'DM Sans',sans-serif" font-size="22" fill="#cbd5e1" letter-spacing="1">Elevate Your Digital Presence &amp; Innovation</text>
<text x="210" y="145" font-family="'DM Sans',sans-serif" font-size="16" fill="#67e8f9">VISIT US TODAY: https://thatcomputerguy26.com</text>

<!-- THREE SERVICE CARDS -->

<!-- CARD 1: TCG Web Solutions -->
<g transform="translate(60,200)">
  <rect x="0" y="0" width="400" height="440" rx="16" fill="url(#cardGlass)" stroke="rgba(34,211,238,.3)" stroke-width="1.5" filter="url(#dropShadow)"/>
  <rect x="0" y="0" width="400" height="4" rx="2" fill="url(#cyanBtn)"/>
  <g transform="translate(30,30)">
    <!-- icon: monitor + code -->
    <rect x="0" y="0" width="48" height="48" rx="10" fill="url(#cyanBtn)"/>
    <rect x="10" y="12" width="28" height="18" rx="2" fill="#fff" opacity=".2"/>
    <rect x="14" y="34" width="20" height="4" rx="1" fill="#fff" opacity=".3"/>
  </g>
  <text x="100" y="50" font-family="'DM Sans',sans-serif" font-weight="800" font-size="22" fill="#67e8f9">TCG WEB</text>
  <text x="100" y="76" font-family="'DM Sans',sans-serif" font-weight="800" font-size="22" fill="#67e8f9">SOLUTIONS</text>

  <line x1="30" y1="100" x2="370" y2="100" stroke="rgba(34,211,238,.25)" stroke-width="1"/>

  <text x="30" y="135" font-family="'DM Sans',sans-serif" font-weight="700" font-size="18" fill="#fff">Modern Web Design</text>
  <text x="30" y="160" font-family="'DM Sans',sans-serif" font-weight="700" font-size="18" fill="#fff">&amp; Development</text>

  <g font-family="'DM Sans',sans-serif" font-size="15" fill="#cbd5e1">
    <circle cx="35" cy="210" r="3" fill="#22d3ee"/><text x="48" y="215">Stunning UI / UX</text>
    <circle cx="35" cy="240" r="3" fill="#22d3ee"/><text x="48" y="245">Responsive Layouts</text>
    <circle cx="35" cy="270" r="3" fill="#22d3ee"/><text x="48" y="275">Custom Builds</text>
    <circle cx="35" cy="300" r="3" fill="#22d3ee"/><text x="48" y="305">SEO Optimization</text>
    <circle cx="35" cy="330" r="3" fill="#22d3ee"/><text x="48" y="335">Netlify / Cloud Deploy</text>
    <circle cx="35" cy="360" r="3" fill="#22d3ee"/><text x="48" y="365">From $300 flat</text>
  </g>

  <rect x="30" y="390" width="340" height="34" rx="8" fill="#22d3ee" opacity=".15" stroke="#22d3ee" stroke-width="1"/>
  <text x="200" y="412" text-anchor="middle" font-family="'DM Sans',sans-serif" font-weight="700" font-size="13" fill="#67e8f9">CUSTOM DEVELOPMENT</text>
</g>

<!-- CARD 2: That Computer Guy -->
<g transform="translate(500,200)">
  <rect x="0" y="0" width="400" height="440" rx="16" fill="url(#cardGlass)" stroke="rgba(251,191,36,.35)" stroke-width="1.5" filter="url(#dropShadow)"/>
  <rect x="0" y="0" width="400" height="4" rx="2" fill="url(#goldBtn)"/>
  <g transform="translate(30,30)">
    <!-- icon: desktop + wrench -->
    <rect x="0" y="0" width="48" height="48" rx="10" fill="url(#goldBtn)"/>
    <rect x="8" y="10" width="22" height="18" rx="2" fill="#1a1a1a" opacity=".3"/>
    <path d="M 33 16 L 40 16 L 42 20 L 38 22 L 40 28 L 36 32 L 32 30 L 28 34 L 24 30 Z" fill="#1a1a1a" opacity=".5"/>
  </g>
  <text x="100" y="50" font-family="'DM Sans',sans-serif" font-weight="800" font-size="22" fill="#fbbf24">THAT COMPUTER</text>
  <text x="100" y="76" font-family="'DM Sans',sans-serif" font-weight="800" font-size="22" fill="#fbbf24">GUY 26</text>

  <line x1="30" y1="100" x2="370" y2="100" stroke="rgba(251,191,36,.25)" stroke-width="1"/>

  <text x="30" y="135" font-family="'DM Sans',sans-serif" font-weight="700" font-size="18" fill="#fff">Expert IT Support</text>
  <text x="30" y="160" font-family="'DM Sans',sans-serif" font-weight="700" font-size="18" fill="#fff">&amp; Consulting</text>

  <g font-family="'DM Sans',sans-serif" font-size="15" fill="#cbd5e1">
    <circle cx="35" cy="210" r="3" fill="#fbbf24"/><text x="48" y="215">Hardware &amp; Software Repair</text>
    <circle cx="35" cy="240" r="3" fill="#fbbf24"/><text x="48" y="245">Network Setup &amp; Wi-Fi</text>
    <circle cx="35" cy="270" r="3" fill="#fbbf24"/><text x="48" y="275">Virus / Malware Removal</text>
    <circle cx="35" cy="300" r="3" fill="#fbbf24"/><text x="48" y="305">Troubleshooting &amp; Triage</text>
    <circle cx="35" cy="330" r="3" fill="#fbbf24"/><text x="48" y="335">Custom PC Builds</text>
    <circle cx="35" cy="360" r="3" fill="#fbbf24"/><text x="48" y="365">From $45 / hr &middot; 7 days</text>
  </g>

  <rect x="30" y="390" width="340" height="34" rx="8" fill="#fbbf24" opacity=".18" stroke="#fbbf24" stroke-width="1"/>
  <text x="200" y="412" text-anchor="middle" font-family="'DM Sans',sans-serif" font-weight="700" font-size="13" fill="#fbbf24">CALL 812-414-9097</text>
</g>

<!-- CARD 3: TCG Cloud Services -->
<g transform="translate(940,200)">
  <rect x="0" y="0" width="400" height="440" rx="16" fill="url(#cardGlass)" stroke="rgba(168,85,247,.35)" stroke-width="1.5" filter="url(#dropShadow)"/>
  <rect x="0" y="0" width="400" height="4" rx="2" fill="url(#purpBtn)"/>
  <g transform="translate(30,30)">
    <!-- icon: cloud + servers -->
    <rect x="0" y="0" width="48" height="48" rx="10" fill="url(#purpBtn)"/>
    <path d="M 10 28 Q 10 18 20 18 Q 22 12 30 14 Q 38 12 40 22 Q 42 20 42 26 Q 42 32 36 32 L 14 32 Q 10 32 10 28 Z" fill="#fff" opacity=".35"/>
  </g>
  <text x="100" y="50" font-family="'DM Sans',sans-serif" font-weight="800" font-size="22" fill="#c084fc">TCG CLOUD</text>
  <text x="100" y="76" font-family="'DM Sans',sans-serif" font-weight="800" font-size="22" fill="#c084fc">SERVICES</text>

  <line x1="30" y1="100" x2="370" y2="100" stroke="rgba(168,85,247,.25)" stroke-width="1"/>

  <text x="30" y="135" font-family="'DM Sans',sans-serif" font-weight="700" font-size="18" fill="#fff">Secure Cloud Computing</text>
  <text x="30" y="160" font-family="'DM Sans',sans-serif" font-weight="700" font-size="18" fill="#fff">&amp; Storage</text>

  <g font-family="'DM Sans',sans-serif" font-size="15" fill="#cbd5e1">
    <circle cx="35" cy="210" r="3" fill="#a855f7"/><text x="48" y="215">Cloud Migration</text>
    <circle cx="35" cy="240" r="3" fill="#a855f7"/><text x="48" y="245">3-2-1 Backup Strategy</text>
    <circle cx="35" cy="270" r="3" fill="#a855f7"/><text x="48" y="275">Scalable Solutions</text>
    <circle cx="35" cy="300" r="3" fill="#a855f7"/><text x="48" y="305">Infrastructure as Code</text>
    <circle cx="35" cy="330" r="3" fill="#a855f7"/><text x="48" y="335">Local LLM Deployment</text>
    <circle cx="35" cy="360" r="3" fill="#a855f7"/><text x="48" y="365">Encrypted Offsite (B2)</text>
  </g>

  <rect x="30" y="390" width="340" height="34" rx="8" fill="#a855f7" opacity=".18" stroke="#a855f7" stroke-width="1"/>
  <text x="200" y="412" text-anchor="middle" font-family="'DM Sans',sans-serif" font-weight="700" font-size="13" fill="#c084fc">REQUEST A QUOTE</text>
</g>

<!-- Bottom URL band -->
<g transform="translate(0,660)">
  <rect x="0" y="0" width="1400" height="40" fill="rgba(34,211,238,.05)"/>
  <text x="700" y="26" text-anchor="middle" font-family="'DM Sans',sans-serif" font-weight="700" font-size="17" fill="#67e8f9" letter-spacing="2">THATCOMPUTERGUY26.COM  &middot;  812-414-9097  &middot;  SEYMOUR, INDIANA</text>
</g>

</svg>
